<svg xmlns="http://www.w3.org/2000/svg" x="0px" y="0px" width="30" height="30" viewBox="0,0,256,256"
style="fill:#000000;">
<g fill="none" fill-rule="nonzero" stroke="none" stroke-width="1" stroke-linecap="butt" stroke-linejoin="miter" stroke-miterlimit="10" stroke-dasharray="" stroke-dashoffset="0" font-family="none" font-weight="none" font-size="none" text-anchor="none" style="mix-blend-mode: normal"><g transform="scale(5.33333,5.33333)"><path d="M28,23h-4v2h4c0.552,0 1,-0.448 1,-1c0,-0.552 -0.448,-1 -1,-1z" fill="#199be2"></path><path d="M28,19h-4v2h4c0.552,0 1,-0.448 1,-1c0,-0.552 -0.448,-1 -1,-1z" fill="#199be2"></path><path d="M28,15h-4v2h4c0.552,0 1,-0.448 1,-1c0,-0.552 -0.448,-1 -1,-1z" fill="#199be2"></path><path d="M28,11h-4v2h4c0.552,0 1,-0.448 1,-1c0,-0.552 -0.448,-1 -1,-1z" fill="#199be2"></path><path d="M28,7h-4v2h4c0.552,0 1,-0.448 1,-1c0,-0.552 -0.448,-1 -1,-1z" fill="#199be2"></path><path d="M28,26.947v-21.947c0,-0.552 -0.448,-1 -1,-1h-6c-0.552,0 -1,0.448 -1,1v21.947c-2.961,1.474 -5,4.522 -5,8.053c0,4.971 4.029,9 9,9c4.971,0 9,-4.029 9,-9c0,-3.532 -2.039,-6.58 -5,-8.053z" fill="#35c1f1"></path><circle cx="24" cy="35" r="6" fill="#15628c"></circle><rect x="23" y="15" width="2" height="16" fill="#15628c"></rect><rect x="23" y="7" width="2" height="8" fill="#1b9de2"></rect></g></g>
</svg>