<svg xmlns="http://www.w3.org/2000/svg" x="0px" y="0px" width="30" height="30" viewBox="0 0 40 40">
<path fill="#fff" d="M20,32.5C10.238,32.5,2.002,21.886,0.616,20C2.002,18.115,10.245,7.5,20,7.5 c9.762,0,17.998,10.614,19.384,12.5C37.998,21.885,29.755,32.5,20,32.5z"></path><path fill="#ba9b48" d="M20,8c9.097,0,16.906,9.548,18.76,12C36.906,22.452,29.097,32,20,32S3.094,22.452,1.24,20 C3.094,17.548,10.903,8,20,8 M20,7C8.954,7,0,20,0,20s8.954,13,20,13s20-13,20-13S31.046,7,20,7L20,7z"></path><path fill="#8bb7f0" d="M20,28.5c-4.687,0-8.5-3.813-8.5-8.5s3.813-8.5,8.5-8.5s8.5,3.813,8.5,8.5S24.687,28.5,20,28.5z"></path><path fill="#4e7ab5" d="M20,12c4.411,0,8,3.589,8,8s-3.589,8-8,8s-8-3.589-8-8S15.589,12,20,12 M20,11c-4.971,0-9,4.029-9,9 s4.029,9,9,9s9-4.029,9-9S24.971,11,20,11L20,11z"></path><path fill="#36404d" d="M20 16A4 4 0 1 0 20 24A4 4 0 1 0 20 16Z"></path><path fill="#fff" d="M23 14A2 2 0 1 0 23 18A2 2 0 1 0 23 14Z"></path>
</svg>